ply
format ascii 1.0
comment visualization of marker positions by Oisin Feely
element vertex 16
property float32 x
property float32 y
property float32 z
element face 4
property list uint8 int32 vertex_index
end_header
  -1.2945 0.0338019 0.0189324
 -1.30043 0.0342392 0.0269707
 -1.30119 0.0242682 0.0269522
 -1.29526 0.0238308 0.0189139
-0.928009  0.261876   0.56754
-0.919447  0.261522  0.572694
-0.920549   0.25165  0.573847
-0.929112  0.252004  0.568694
  0.318967 -0.0742417   0.895798
   0.32459 -0.0745713   0.887535
  0.324083 -0.0845583   0.887588
   0.31846 -0.0842286   0.895851
-0.412136 -0.212138  0.905377
-0.404692 -0.212346  0.912051
-0.404861 -0.222344  0.911929
-0.412305 -0.222136  0.905254
4 0 1 2 3 
4 4 5 6 7 
4 8 9 10 11 
4 12 13 14 15 
