ply
format ascii 1.0
comment visualization of marker positions by Oisin Feely
element vertex 16
property float32 x
property float32 y
property float32 z
element face 4
property list uint8 int32 vertex_index
end_header
  -1.2945 0.0338019 0.0189324
 -1.35383 0.0381752 0.0993153
  -1.36143 -0.0615353  0.0991306
   -1.3021 -0.0659087  0.0187477
-0.928009  0.261876   0.56754
-0.842385  0.258335  0.619076
-0.853409  0.159616  0.630609
-0.939033  0.163157  0.579073
  0.318967 -0.0742417   0.895798
  0.375201 -0.0775386   0.813173
 0.370129 -0.177408  0.813706
 0.313895 -0.174112  0.896331
-0.412136 -0.212138  0.905377
  -0.3377 -0.214217  0.972122
-0.339391 -0.314195  0.970895
-0.413827 -0.312117   0.90415
4 0 1 2 3 
4 4 5 6 7 
4 8 9 10 11 
4 12 13 14 15 
