ply
format ascii 1.0
comment visualization of marker positions by Oisin Feely
element vertex 16
property float32 x
property float32 y
property float32 z
element face 4
property list uint8 int32 vertex_index
end_header
-3.85972  1.42928 -4.86313
-3.86834  1.42817 -4.85819
-3.86862  1.41853 -4.86083
-3.85999  1.41964 -4.86577
 -2.7589  1.06678 -2.56305
-2.75315  1.06481  -2.5551
-2.75408  1.05501 -2.55687
-2.75983  1.05698 -2.56481
-0.0469137 -0.0968404   0.895677
-0.0384621  -0.095708   0.890453
-0.0384402  -0.105488   0.888369
-0.0468917  -0.106621   0.893592
-0.719593 -0.221024  0.582987
-0.715007 -0.222703  0.591714
-0.714861 -0.232508   0.58975
-0.719447 -0.230828  0.581024
4 0 1 2 3 
4 4 5 6 7 
4 8 9 10 11 
4 12 13 14 15 
