ply
format ascii 1.0
comment visualization of marker positions by Oisin Feely
element vertex 16
property float32 x
property float32 y
property float32 z
element face 4
property list uint8 int32 vertex_index
end_header
  1.63677 -0.136575   1.10381
  1.64661 -0.137102   1.10552
  1.64649 -0.146827    1.1032
1.63665 -0.1463 1.10148
 1.79511 0.146344  1.12746
   1.805 0.145417  1.12865
  1.8044 0.135769  1.12609
 1.79452 0.136696   1.1249
 1.03475 0.125106 0.919934
 1.03794 0.122175 0.928944
 1.03714 0.112616  0.92612
 1.03394 0.115547  0.91711
0.733926 0.238004 0.854481
0.743293 0.239008 0.851127
0.743576 0.229242 0.848994
0.734209 0.228238 0.852347
4 0 1 2 3 
4 4 5 6 7 
4 8 9 10 11 
4 12 13 14 15 
