ply
format ascii 1.0
comment visualization of marker positions by Oisin Feely
element vertex 16
property float32 x
property float32 y
property float32 z
element face 4
property list uint8 int32 vertex_index
end_header
-1.04991 0.894973 0.637722
-0.977447  0.831939  0.665573
-1.04612 0.762511 0.687114
-1.11858 0.825544 0.659262
-1.11903 0.440615 0.913741
-1.08297 0.361259 0.962756
-1.17575 0.325312 0.972804
 -1.2118 0.404669 0.923789
-0.583141  0.419453  0.954092
-0.513723  0.360867  0.995909
-0.584107  0.293454   1.01831
-0.653526   0.35204  0.976489
 -0.378253 -0.0171988    1.22392
 -0.283643 -0.0378357    1.24888
-0.313674 -0.122592   1.29264
-0.408284 -0.101955   1.26768
4 0 1 2 3 
4 4 5 6 7 
4 8 9 10 11 
4 12 13 14 15 
