ply
format ascii 1.0
comment visualization of marker positions by Oisin Feely
element vertex 16
property float32 x
property float32 y
property float32 z
element face 4
property list uint8 int32 vertex_index
end_header
-1.22546 0.701622 0.566149
-1.14812 0.655471 0.609603
-1.20939 0.583467 0.642181
-1.28673 0.629618 0.598727
-1.24073 0.275863 0.903605
-1.19859 0.209614  0.96553
-1.28684  0.16395 0.976747
-1.32899 0.230199 0.914823
-0.699314  0.337746   0.97469
-0.626088  0.296472   1.02886
-0.689209  0.225475   1.06009
-0.762435   0.26675   1.00592
 -0.449846 -0.0110539    1.32984
 -0.355202 -0.0145892    1.36193
  -0.37611 -0.0970428    1.41451
 -0.470754 -0.0935074    1.38241
4 0 1 2 3 
4 4 5 6 7 
4 8 9 10 11 
4 12 13 14 15 
