ply
format ascii 1.0
comment visualization of marker positions by Oisin Feely
element vertex 16
property float32 x
property float32 y
property float32 z
element face 4
property list uint8 int32 vertex_index
end_header
-0.245873 -0.041672   1.03435
 -0.237504 -0.0388401    1.02967
 -0.234888 -0.0484266    1.02854
 -0.243258 -0.0512584    1.03323
0.268694 0.206518 0.975976
0.262903 0.209057  0.96823
 0.26343 0.199692 0.964765
0.269221 0.197152 0.972512
  0.114419 -0.0514408   0.895525
  0.116421 -0.0497504   0.885875
 0.115568 -0.059533  0.883984
  0.113566 -0.0612234   0.893635
-0.0633245  -0.126126    0.91064
-0.0549005  -0.123915   0.905726
-0.0536454  -0.133589   0.903525
-0.0620693    -0.1358   0.908439
4 0 1 2 3 
4 4 5 6 7 
4 8 9 10 11 
4 12 13 14 15 
