ply
format ascii 1.0
comment visualization of marker positions by Oisin Feely
element vertex 8
property float32 x
property float32 y
property float32 z
element face 2
property list uint8 int32 vertex_index
property uchar red                   
property uchar green
property uchar blue
end_header
0.322846 0.0790817   1.04381
0.313998 0.0828156   1.04141
0.318377 0.089437  1.03552
0.327225 0.0857031   1.03791
-0.353591  0.219594  0.845455
-0.344313  0.217336   0.84829
-0.34779 0.209549 0.853454
-0.357068  0.211807  0.850619
4 0 1 2 3 255 0 0
4 4 5 6 7 255 0 0
