ply
format ascii 1.0
comment visualization of marker positions by Oisin Feely
element vertex 16
property float32 x
property float32 y
property float32 z
element face 4
property list uint8 int32 vertex_index
end_header
 1.10256  1.04407 0.947746
 1.10909  1.03882 0.948684
 1.11439  1.04541 0.948846
 1.10786  1.05066 0.947908
0.115084  1.10024 0.947689
0.121612  1.09495 0.948477
0.126916  1.10155 0.948844
0.120387  1.10683 0.948055
-1.05339e-313  6.12165e-313      0.932094
 0.00261324 0.000154872    0.927703
0.00245837  0.0101457   0.927963
-0.000154872   0.00999082     0.932354
-1.94084e-313  4.74874e-313      0.947558
 0.00519575 0.000275245    0.942569
 0.005471 0.0102595  0.942855
0.000275245  0.00998423    0.947843
4 0 1 2 3 
4 4 5 6 7 
4 8 9 10 11 
4 12 13 14 15 
