ply
format ascii 1.0
comment visualization of marker positions by Oisin Feely
element vertex 16
property float32 x
property float32 y
property float32 z
element face 4
property list uint8 int32 vertex_index
end_header
 1.10256  1.04407 0.947746
 1.10909  1.03882 0.948684
 1.11439  1.04541 0.948846
 1.10786  1.05066 0.947908
0.745979  1.06382 0.947729
0.752507  1.05853 0.948517
 0.75781  1.06512 0.948884
0.751282  1.07041 0.948095
-1.05345e-313   6.1211e-313      0.932094
 0.00261324 0.000154872    0.927703
0.00245837  0.0101457   0.927963
-0.000154872   0.00999082     0.932354
-1.94103e-313  4.74791e-313      0.947558
 0.00519575 0.000275245    0.942569
 0.005471 0.0102595  0.942855
0.000275245  0.00998423    0.947843
4 0 1 2 3 
4 4 5 6 7 
4 8 9 10 11 
4 12 13 14 15 
