ply
format ascii 1.0
comment visualization of marker positions by Oisin Feely
element vertex 16
property float32 x
property float32 y
property float32 z
element face 4
property list uint8 int32 vertex_index
end_header
 1.03435 0.964458 0.860376
 1.03138 0.960787 0.853643
 1.03429 0.954157 0.856114
 1.03726 0.957828 0.862847
0.644588 0.975976 0.860355
0.641634 0.972294 0.853618
0.644576 0.965676 0.856083
 0.64753 0.969358  0.86282
-2.64748e-314  6.55269e-313      0.895525
  0.00394146 -0.000772097       0.8907
0.00471356 0.00907666   0.889755
0.000772097  0.00984875     0.89458
-8.88288e-314  5.44994e-313      0.860208
  0.0063789 -0.00104156    0.855516
0.00533733 0.00865884   0.854167
-0.00104156  0.00970041    0.858858
4 0 1 2 3 
4 4 5 6 7 
4 8 9 10 11 
4 12 13 14 15 
